<?xml version="1.0" encoding="utf-8"?>
<!-- Generator: Adobe Illustrator 16.0.3, SVG Export Plug-In . SVG Version: 6.00 Build 0)  -->
<!DOCTYPE svg PUBLIC "-//W3C//DTD SVG 1.1//EN" "http://www.w3.org/Graphics/SVG/1.1/DTD/svg11.dtd">
<svg version="1.1" id="Layer_1" xmlns="http://www.w3.org/2000/svg" xmlns:xlink="http://www.w3.org/1999/xlink" x="0px" y="0px"
	 width="115.5px" height="104.333px" viewBox="0 0 115.5 104.333" enable-background="new 0 0 115.5 104.333" xml:space="preserve">
<g>
	<path fill="#777777" stroke="#E0E0E0" stroke-width="2" stroke-miterlimit="10" d="M84.444,13.833H31.056c-6.32,0-11.44,9-11.44,13
		h76.27C95.885,22.833,90.764,13.833,84.444,13.833z"/>
	<path fill="#777777" stroke="#E0E0E0" stroke-width="2" stroke-miterlimit="10" d="M72.307,13.833c-1.578-2-5.768-7-10.74-7H53.94
		c-4.976,0-9.165,5-10.74,7H72.307z"/>
	<path fill="#777777" stroke="#E0E0E0" stroke-width="2" stroke-miterlimit="10" d="M80.635,29.192H34.874H23.429v11.44v22.88
		v22.881c0,6.318,5.125,11.439,11.445,11.439h45.762c6.314,0,11.436-5.121,11.436-11.439V63.513v-22.88v-11.44H80.635z
		 M38.682,90.208h-7.626V36.819h7.626V90.208z M53.936,90.208H46.31V36.819h7.626V90.208z M69.19,90.208h-7.626V36.819h7.626V90.208
		z M84.444,90.208h-7.627V36.819h7.627V90.208z"/>
</g>
</svg>
